<svg width="16" height="16" viewBox="0 0 16 16" fill="none" xmlns="http://www.w3.org/2000/svg">
<g id="24 / shopping / coupon">
<path id="icon" fill-rule="evenodd" clip-rule="evenodd" d="M15.3334 12C15.3334 12.7364 14.7364 13.3333 14 13.3333H2.00002C1.26364 13.3333 0.666687 12.7364 0.666687 12V9.92538L0.999536 9.73283C1.6141 9.37732 2.00002 8.72263 2.00002 7.99999C2.00002 7.27735 1.6141 6.62265 0.999536 6.26715L0.666687 6.0746V3.99999C0.666687 3.26361 1.26364 2.66666 2.00002 2.66666H14C14.7364 2.66666 15.3334 3.26361 15.3334 3.99999V6.0746L15.0005 6.26715C14.3859 6.62265 14 7.27735 14 7.99999C14 8.72263 14.3859 9.37732 15.0005 9.73283L15.3334 9.92538V12ZM12.6667 7.99999C12.6667 6.93298 13.1727 5.95358 14 5.33297V3.99999L10 3.99999C10 4.36818 9.70154 4.66666 9.33335 4.66666C8.96516 4.66666 8.66669 4.36818 8.66669 3.99999L2.00002 3.99999V5.33297C2.82736 5.95358 3.33335 6.93298 3.33335 7.99999C3.33335 9.06699 2.82736 10.0464 2.00002 10.667V12H8.66669C8.66669 11.6318 8.96516 11.3333 9.33335 11.3333C9.70154 11.3333 10 11.6318 10 12H14V10.667C13.1727 10.0464 12.6667 9.06699 12.6667 7.99999ZM9.33335 10.6667C9.70154 10.6667 10 10.3682 10 9.99999C10 9.6318 9.70154 9.33332 9.33335 9.33332C8.96516 9.33332 8.66669 9.6318 8.66669 9.99999C8.66669 10.3682 8.96516 10.6667 9.33335 10.6667ZM10 7.99999C10 8.36818 9.70154 8.66666 9.33335 8.66666C8.96516 8.66666 8.66669 8.36818 8.66669 7.99999C8.66669 7.6318 8.96516 7.33332 9.33335 7.33332C9.70154 7.33332 10 7.6318 10 7.99999ZM9.33335 6.66666C9.70154 6.66666 10 6.36818 10 5.99999C10 5.6318 9.70154 5.33332 9.33335 5.33332C8.96516 5.33332 8.66669 5.6318 8.66669 5.99999C8.66669 6.36818 8.96516 6.66666 9.33335 6.66666Z" fill="#E0E0E0"/>
</g>
</svg>
