<svg width="16" height="16" viewBox="0 0 16 16" fill="none" xmlns="http://www.w3.org/2000/svg">
<g id="24 / basic / heart">
<path id="icon" fill-rule="evenodd" clip-rule="evenodd" d="M11.0355 1.33332C10.0704 1.33331 9.44826 1.44829 8.7351 1.79736C8.47107 1.9266 8.22336 2.08224 7.99331 2.26382C7.77213 2.09242 7.53432 1.94393 7.28121 1.81874C6.55421 1.45916 5.90019 1.33331 4.9697 1.33331C2.47763 1.33331 0.666668 3.39816 0.666668 6.0799C0.666668 8.10515 1.79589 10.0615 3.89923 11.9532C5.00326 12.9462 6.41288 13.9289 7.4224 14.4516L8 14.7507L8.5776 14.4516C9.58712 13.9289 10.9967 12.9462 12.1008 11.9532C14.2041 10.0615 15.3333 8.10515 15.3333 6.0799C15.3333 3.42654 13.5053 1.34355 11.0355 1.33332ZM14 6.0799C14 7.66658 13.0575 9.29952 11.2092 10.9619C10.2015 11.8682 8.90598 12.7739 8 13.2491C7.09403 12.7739 5.79855 11.8682 4.79085 10.9619C2.94255 9.29952 2 7.66658 2 6.0799C2 4.09846 3.25576 2.66665 4.9697 2.66665C5.70952 2.66665 6.16542 2.75437 6.69009 3.01388C7.00001 3.16716 7.27392 3.36956 7.51102 3.62249L8.00156 4.14578L8.48763 3.61835C8.73007 3.35528 9.00801 3.14827 9.32128 2.99493C9.83058 2.74564 10.258 2.66665 11.0327 2.66665C12.7255 2.67367 14 4.12596 14 6.0799Z" fill="#E0E0E0"/>
</g>
</svg>
