<svg width="16" height="16" viewBox="0 0 16 16" fill="none" xmlns="http://www.w3.org/2000/svg">
<g id="24 / basic / user">
<path id="icon" fill-rule="evenodd" clip-rule="evenodd" d="M8 15.3334C3.94991 15.3334 0.666667 12.0501 0.666667 8.00002C0.666667 3.94993 3.94991 0.666687 8 0.666687C12.0501 0.666687 15.3333 3.94993 15.3333 8.00002C15.3333 12.0501 12.0501 15.3334 8 15.3334ZM12.933 11.4165C13.6057 10.4469 14 9.2695 14 8.00002C14 4.68631 11.3137 2.00002 8 2.00002C4.68629 2.00002 2 4.68631 2 8.00002C2 9.2695 2.39426 10.4469 3.067 11.4165C3.8173 10.4254 5.5804 10 8 10C10.4196 10 12.1827 10.4254 12.933 11.4165ZM11.9765 12.4932C11.7813 11.7916 10.3796 11.3334 8 11.3334C5.62041 11.3334 4.21867 11.7916 4.02355 12.4932C5.0822 13.4308 6.47463 14 8 14C9.52537 14 10.9178 13.4308 11.9765 12.4932ZM8 4.00002C6.38607 4.00002 5.33333 5.17053 5.33333 6.66669C5.33333 8.9516 6.50724 10 8 10C9.47872 10 10.6667 8.98643 10.6667 6.80002C10.6667 5.28107 9.60946 4.00002 8 4.00002ZM6.66667 6.66669C6.66667 8.17953 7.21214 8.66669 8 8.66669C8.78514 8.66669 9.33333 8.19895 9.33333 6.80002C9.33333 5.96697 8.81044 5.33335 8 5.33335C7.15583 5.33335 6.66667 5.87724 6.66667 6.66669Z" fill="#E0E0E0"/>
</g>
</svg>
